<svg version="1.0" width="100" height="100" viewBox="0 0 75 75" xmlns="http://www.w3.org/2000/svg">
  <path d="M24.1 1.7v.2l-.4.5-.3-.1c-.3-.2-.5-.2-.6 0l-.1.3c0 .4 0 1.3-.3 1.5h-.3c-.3 0-.8.6-1 1l-.3.4-.6.4c-.3.5-.4.5-.5.3 0-.2-.3-.3-.5 0v.3c0 .8-.3 1.3-.8 1.5-.3 0-.5 0-.5-.3v-.4c-.1-.2-.5-.3-.9-.3-.3 0-.4 0-.5.3-.2.2-.3.3-.5 0h-.3l-.3-.1H15c-.3 0-.5 0-.5.4 0 .2.2.8.4 1 .4.3.4 1 0 1-.2 0-.5.3-.4.7l.2.5.2.3c0 .2 0 .4-.3.4l-.6-.6c-.2-.2-.2-.2-.5-.2-.4 0-.6-.1-.7-.5-.2-.5-.7-1-1-1h-.2c-.1 0-.1 0 0-.2l-.1-.5h-.3c-.3.3-.5.4-.6.1h-.3c.1.5.4.7.7.8v.3c0 .3 0 .5.2.7.2.2.2.4 0 .8-.2.3-.1.4.2.5.2.2.3.3.2.8-.1.8-.5 1-.9.4-.2-.2-.5-.5-.7-.5l-.7.3c-.2.1-.1.5 0 .7.1 0 .1.2 0 .2l-.1-.1-.2-.2-.5.3c-.4.2-.5.3-.6.2-.3 0-.4 0-.4.4 0 .3 0 .4-.2.4l-.2.1c-.2 0-.3.2-.2.5l-.1.4c-.3 0-.2.2 0 .4s.2.2.5.2.5 0 .4.3h-.3c-.3 0-.4 0-.5.6l-.4.4-.2.1.2 1.3c0 .2.3.7.2 1h-.2c-.2.2-.2.3 0 .4v.4c0 .1-.2.2-.7.2-.5 0-.6 0-.9-.2l-.4-.2c-.1-.3-.7-.7-.8-.7v.5l.2.3v.5l.2.4c.3.3.3.4 0 .7l-.1.3H1.7v.7c.4.5.5.6.5 1V24.7l.2.3c0 .2 0 .2.2.3.3 0 .4 0 .4.7 0 .4 0 .4.2.5.2.1.2.1.4 0l.3.1.3 1c0 .2.2.5.4.5.3 0 .5.4.6.7l-.2.4c-.4.3-.4.3-.4.6l-.2.6-.1.3v.3l.3.2c.2 0 .2 0 .2-.3 0-.4 0-.6.3-.8h.4c.2.2.3.2.4 0V30c0-.3.3-.2.4 0 0 .2.2.3.3.4l.2.2c0 .2 0 .3.2.3s.3.1.1.3v.5l.1.4.1.5.1.3.2.2.6 1 .2.4c.2.2.2.5 0 .5l-.2-.3c-.2-.2-.2-.2-.3-.1-.3 0-.4.7-.2 1l.2.6c.1.5 0 .5-.3.5s-.3 0-.5-.2c-.3-.4-.5-.3-.4.3v.4l.5.3c.2 0 .2 0 .2.3l.1.7c.2.3.2.4 0 .7l-.3.5-.2.4c-.2.4-.4 1-.2 1.4l.2.6.3 1h1v.3c0 .2 0 .2.6.4h.5l.3-.1c.4-.3.8-.2.9.2 0 .4.1.4.4.2l.3-.1.2.2c.2.2.4.7.3 1.1v.2c-.2 0-.6-.3-.8-.7l-.2-.2-.4.3c-.5.4-.5.6.1 1.2.4.4.4.4.8.4l.4-.1c0-.2 0-.2.2-.1h.4c.2 0 .4.2.4.3l.1.2.3.4c0 .3 0 .3-.1.2a.8.8 0 0 0-.4-.2s-.2-.1-.2-.3c0-.2 0-.2-.2-.3-.4-.2-.6.3-.3.7l.3.4v.1c0 .2-.5.1-.8 0-.4-.3-.6-.3-.8 0a1 1 0 0 0-.2.2c0 .1.2.4.4.4l.3.3.2.2h.4c.3 0 .4.1.4.4 0 .3 0 .4.3.3v-.6l.1-.7.1-.2.3.1c.2 0 .4.2.5.3l.2.1c.2-.3.2-.2.2 0l-.1.2-.3.3c0 .3-.2.4-.4.2h-.3v.3l.1.3.3.5c.3.3.3.3.5.3s.2 0 .3-.2V50c-.2-.2-.2-.3-.2-.5 0-.4.2-.5.4-.5 0 0 .4.6.3.8l-.1.2-.2.2.3.3c.5.3.4.3 1 .2.3 0 .4 0 .4.4v.5c0 .3 0 .4-.2.4-.6 0-.9.3-1 .7l.1 1.2c.2.2.5.4.9.5l.4-.2c.3-.2.4-.7.5-1.1v-.4l1 .5c0 .3.2.4.3.4l.5.1.7.2c.4 0 .4 0 .6.2 0 .2.2.3.4.3s.4.2.5.3c.3.2.6.4 1 .4.3 0 .5.2.7.4.1.2.4 0 .4-.1 0-.2.1-.2.4-.1.4 0 .9-.1 1-.4 0-.2.2-.4.4-.4s1 .6 1.8 1.3c.4.5.5.6.8.7.4 0 .6 0 1-.5.7-.6.9-.6.6-.1-.2.3-.2.5-.1.7 0 .3.2.3.4.1.2-.2.5-.2.7 0l.2.4c.1.3.2.4.6.4h.4c.2.1 1 0 1.2-.3h.8c0-.2.2-.2.4 0l.3.2.8-.4c.2-.2.3-.2.6 0 .1 0 .3.1.4 0l.3.1c.3.2.4.2.5 0 0-.6.3-.7.3-.3l.1.3.4.2c.4 0 .6.2.8.6.2.3.3.4.7.5l.7.5v.2c.1.2.2.3.5.3.2 0 .3 0 .3.4s0 .8.3.8h.4c.3 0 .4.1.4.4 0 .2.2.3.3.2.2-.1.2-.2.1-.4 0-.4 0-.6.2-.9v-.3c0-.2 0-.3.3-.5.1 0 .3-.2.3-.4l.2-.3c.2-.1.2-.4 0-.6a.7.7 0 0 1 0-.7c0-.2.3 0 .6.1l.4.2c.2 0 .5-.2.6-.4.2-.5.4-.7.8-1 .4-.4.4-.4.4-.6V55l.2-.3h1c.5 0 .7 0 .8-.3v-.7l-.1-.6v-.4l-.1-.1.4.3.6.5h.3l1.3.3h1.2l1 .1c.2.2.8.3.8.2l-.2-.3c-.2-.3-.2-.4 0-.4h.6l.6.3c.4 0 .6 0 1 .2l.7.4c.2.3.3.2.4 0l.2-.4h.4l.6-.2.7-.1c.2 0 .3-.1.4 0h.5l.6.1.2.2h2.4l.2-.4v-.6l.2-.5c0-.2-.2-.4-.6-.5l-.5-.2a2 2 0 0 0-.4-.2c-.2 0-.2-.2-.2-.3-.2-.3-.3-.4-.5-.2h-.5c0-.2 0-.2.3-.3.3 0 .4 0 .5-.2l.2-.2 1 .4v.1l.4-.1h.7c.2.1.2.1.4 0l.2-.2.8-.4c.2 0 .3-.1.5-.3.2-.2.2-.4 0-.7h.2c.2 0 .3 0 .4-.4.3-.3.5-.5.8-.5.3 0 .5 0 1-.5.6-.6.6-.7-.3-1h-.7l-.5-.2c-.1-.1-.2-.2-.5-.1h-.4a.3.3 0 0 0-.4 0c-.3 0-.9-.1-1-.3h-1.1l-.5-.2c-.3 0-.7-.3-1-.7 0-.3-.2-.4-.3-.3-.2.1-.2-.2-.3-1V43l.2-.5v-.8c0-.3 0-.5.2-.6 0 0 0-.1.2 0v.6c-.2.1-.2.2-.1.2h.2l.4-.2.2-.2c.2-.2.2-.2.4 0 .3 0 .4 0 .5-.4 0-.2.2-.4.3-.5l.2-.4c0-.4.4-.4.4 0v.4h.3l.2-.3.2-.2.1.3c.2.5.6.8.7.5l-.1-.2c-.2-.2-.2-.3 0-.5h.7s.2 0 .2-.5v-.8l.1-.3c0-.3-.1-.5-.3-.6-.4-.2-.5-.4-.4-.6a23.7 23.9 0 0 0 .4-2.8v-1.2a2 2 0 0 1-.2-.8c0-.6 0-.7-.4-1.3-.3-.5-.4-.5-.6-.6A3.8 3.9 0 0 1 62 30l-.1-.3-.4-.7-.2-.3s0-.3-.2-.5v-.4s.1-.4.3-.4c.2 0 .4-.3.6-.5 0-.2 0-.2.4-.2.2 0 .3 0 1 .7.4.6.7.8.9.8l.3.3.2.2c.2 0 .6.5.7.7.2.2.4.3.7.3h.4l.3.1.3-.2c.2-.3.3-.4.5-.4h.3c.3.6.5.6 1 .5.5-.2.7-.2 1 0l.5-.2.4-.3.2-.4.4-.5.2-.6c0-.3 0-.5-.8-1l-.6-.3a4.8 4.8 0 0 1-.1-1l-.3-.3a4.8 4.8 0 0 1-.3-.5c-.2-.3-.4-.4-1-.5-.5 0-.7 0-.8.2v.2c-.4 0-.4.1-.5.3-.1.2-.3.4-.6.4s-.4 0-.3-.3c.2-.3.1-.6 0-.7-.3-.2-.5-.2-.8 0h-.3l-.3.1h-.4c-.2-.2-.3-.2-.5-.2h-1l-.8-.4c-.3 0-.4 0-.8-.4l-.5-.3-.2-.3c-.2-.4-.3-.4-.4-.3-.3.3-.3.2-.3-.5 0-.5 0-.7.2-.9v-.5l-.1-.3c0-.2 0-.5-.2-.9a1 1 0 0 1 0-.8l.2-.3c0-.2 0-.3-.4-.5l-.1-.2a2 2 0 0 0-.4-1 1 1 0 0 1-.2-.4s0-.3-.2-.5v-1c0-.2 0-.3-.3-.4 0-.2-.2-.2-.4-.2s-.3 0-.4.2l-.3.4-.1.2-.1.2-.3.5-.2.3c0 .2-.1.2-.5.3h-.5l-.2-.3c-.6-.6-1-.7-1.2-.4 0 .2-.1.2-.2.1v-.8c-.3 0-.7 0-.9.3l-.1.1H52c-.3.2-.4.1-.4 0 0-.4 0-.6-.3-.8-.2-.2-.3-.2-.4 0-.2 0 0 .3 0 .4.2.2.2.5 0 .7l-.3.2-.3-.4c-.1-.3-.3-.3-.4 0-.1.3-.2.6 0 .7 0 0 0 .2.2.2.3.2.3.3.5.8 0 .5 0 .6-.3.6h-.7c-.3-.3-.4-.3-1-.3-.5 0-.6 0-1-.3-.4-.2-.5-.3-.5-.5V16h-1v-.4c0-.2-.3-.4-.4-.4-.4 0-.5-.2-.6-.4l-.1-.3c-.2-.2-.2-.3 0-.5.2-.1.2-.3 0-.2-.6 0-.6 0-1.2-.5l-.4-.2c-.2 0-.2 0-.4-.5-.2-.6-.2-.6-.6-.6H42l-.2-.4c0-.2 0-.3-.3-.5l-.5-.4-1-.9v-.4l1-.8c.2 0 .2-.1.3-.5l.3-.5.2-.6c0-.2 0-.3-.2-.5-.2-.5-.3-.6-.3-1.1 0-.7 0-.8-.3-.8l-.1.2c-.1 0-.2.2-.7 0l-.4.2-.2.5c.1.4.1.4-.2.6-.4.2-.4.3 0 .3.2 0 .5.2.5.4 0 .3-.1.4-.8.3-.6 0-.8 0-1 .5l-.5.5-.5.4c-.2.2-.2.2-.3.1l-.3-.3-.4-.6c-.3 0-.4 0-.4.5 0 .3-.2.4-.4.4l-.3-.3c0-.2 0-.4.3-.5l.4-.3-.1-.4a.6.6 0 0 1-.2-.4c0-.2 0-.3.3-.4.3 0 .4-.4.2-.6h-.4c-.4 0-.6 0-.7.4v.4c-.2.2-1 .5-1.1.4-.2 0-.2-.5 0-.7l-.1-.6c-.2-.1-.2-.1 0-.5v-.4h-.3c-.2 0-.3-.2-.3-.5l-.2-.4-.3.1c-.3.2-.7.2-1 0v-1c.1-.4 0-.4 0-.2l-.7.2c-.2 0-.4 0-.6.2-.1.3-.2.4-.2 0 0-.3 0-.5-.2-.5v.2c0 .2-.2.4-.4.4L29 3l-.3-.5h-.4c-.5 0-.6.1-.4.4v.5l-.7.2s-.2 0-.3.2l-.4.3-.2.4c0 .4-.6.9-.9.7-.1 0-.2-.4-.1-1 .1-.5 0-.7-.5-.6-.4.1-.4 0-.4-.6 0-.5 0-.6.2-.6s.3-.2.3-.4 0-.4-.3-.5H24z" style="fill:#000;fill-opacity:1;stroke-width:.0575437"/>
  <path d="M33 3c0 .1 0 .3.2.5h.3V3ZM17 4.5V5c0 .4 0 .5.2.5s.4-.3.4-.5c0-.4-.4-.8-.6-.5zm17 .4v.3c.1 0 .2-.2.1-.3 0-.1-.2-.1-.2 0zM15.8 6c-.1.3.3.6.5.5V6ZM2.4 18l.2.4c.2 0 .3-.2.2-.4-.2-.2-.3-.2-.4 0zM4 28.2c0 .2.3.5.5.5v-.4l-.3-.2Zm-.5 2v.1c.2 0 .3 0 .2-.2h-.2zm2.7 2.6c-.3.1-.3.1-.3.4v.8l1 .5.3-.3c.2-.2.2-.3.1-.6 0-.6 0-.6-.3-.7-.2-.2-.3-.2-.8 0zM68 40.8h-.2c0 .2 0 .4.2.4s.5-.3.4-.4c0-.1-.3-.1-.4 0zm5 3.6c-.3.2-.4.2-.4.6v.4c.3.2.8.4 1 .3l.2-1s-.3-.4-.5-.4zM47.8 57c-.2.3 0 .5.4.4V57a.3.3 0 0 0-.4 0zm0 1.6-.3.2-.5.2h-.4l-.2.6v.4l.1.3c.2.3.3.3.8 0 .4 0 .5-.3.7-.7l.3-.5v-.5zm-35.4.3-.2.3.3.3c.2 0 .3-.2.3-.4 0-.5 0-.6-.4-.2zm-8.2 0-.3.2c-.1.4-.1.5.2.6h.5l.1-.4v-.5h-.5Zm27.5.6c-.4.1-.4.2-.3.3.3.3 1 0 1-.2 0-.3-.3-.3-.7 0zm20 .8c-.3.1-.5.3-.5.4l.4.8.2.3.2.2.7-.7c0-.2 0-.5-.3-.8-.3-.3-.4-.3-.7-.2zm-21.8.7-.4.7.1.3.2.2.2.2c.1 0 .7-.5.7-.7.2-.5-.5-1-.8-.7zm-17.3.7c-.2 0-.2.3 0 .5.1.4.9.4.9-.1l-.5-.6s-.2 0-.3.2zm29.6 0-.2.2-.5.6a4.8 4.8 0 0 0-.5.5l-.1.2c-.2.1-.3.4-.3.7l-.1.3v1c0 .3 0 .3.5.4l.4.2c0 .3.1.4.3.4l.4.1c.4.2.8.2 1 .1l.2-.2h.5l.4.1.2-.2.4-.4h.2l-.2-.5c-.2-.4-.2-.5 0-1V64l.2-.6c0-.2 0-.2-.5-.5l-.7-.6-.4-.4a2 2 0 0 0-1.2 0zM35 63.4l-.4.2c-.2.1-.2.3 0 .8 0 .3 0 .3.4.4.4.2.6.2.8-.1.3-.3.3-1 0-1.2-.1-.2-.4-.2-.8 0zm11.2 1.4c-.2.2-.3.3-.3.6s.1.3.4.3c.5 0 .8-.4.6-.7-.2-.3-.4-.4-.7-.2zm3.4.7c-.2.2-.2.3 0 .6.3.5.5.6.8.4 0-.2.2-.6 0-.8 0-.1-.3-.3-.5-.3zm-20.8.7h-.4l-.5.4c-.2.2-.3.3-.3.6v.7c.2.6.2.6.7.6h.4l.3-.4c.3-.3.3-.4.3-.6V67c.2-.4.1-.6-.2-.8-.2-.2-.2-.2-.3 0zm31.6 1.4c0 .2 0 .6.2.6s.4-.2.4-.4c0-.3-.4-.5-.6-.2zM37 69.2a1 1 0 0 0 0 .7c0 .2 0 .2.3.3.5 0 .6 0 .6-.3 0-.4-.1-.7-.4-.8h-.5zm-.8 2.2v.3l-.2.3-.2.2c-.2.1-.2.1-.1.4v.6c0 .6.5 1 1 .8l.2-.2c.2 0 .2-.1.3-.3l.1-.3.2-.7c.2-.5.2-.5 0-.6h-.3c-.2 0-.3 0-.5-.3-.3-.2-.3-.3-.5-.2z" style="fill:#000;fill-opacity:1;stroke-width:.0575437"/>
</svg>
