<svg xmlns="http://www.w3.org/2000/svg" viewBox="0 0 512 512" style="width:64px;height:64px;opacity:1" xml:space="preserve">
  <path d="M396.1 85.3a156 156 0 0 0-59.3-61A176.7 176.7 0 0 0 247 0a201.4 201.4 0 0 0-101.4 25.5c-26 14.8-37.1 32.1-37.1 32.1a19.5 19.5 0 0 0 .5 29.9l36 28.7a19.4 19.4 0 0 0 24.8-.5s4.4-8 18.3-15.9C202 92 220 85.7 247 85.6c23.5 0 44 8.7 58 20.7a65 65 0 0 1 15.3 18.7 34.1 34.1 0 0 1 4.4 15.5c0 13.8-2.8 22.8-6.6 30.5a62 62 0 0 1-11.8 15.7 131.6 131.6 0 0 1-28.6 20.5c-11.2 6.4-23.4 12-35.6 18.7-14 7.7-28.8 18.8-39.7 35.5a96.2 96.2 0 0 0-12.4 27.7 117 117 0 0 0-4 31V341c0 10.7 8.7 19.4 19.4 19.4h46.8c10.7 0 19.4-8.7 19.4-19.4v-21c0-4 .5-6.7.9-8.4.8-2.5 1.2-3.1 2.5-4.7 1.3-1.4 3.9-3.6 8.7-6.3 7-4 18.3-9.3 31-16.2a206.7 206.7 0 0 0 62-48 142 142 0 0 0 24.3-42 155 155 0 0 0 9.3-54c0-19.7-5.4-38.5-14.2-55.2zM228.8 406.4a52.8 52.8 0 1 0 0 105.6 52.8 52.8 0 0 0 0-105.6z" style="fill:#212121"/>
</svg>
