<svg version="1.0" viewBox="0 0 1280 1277" style="width:64px;height:64px;opacity:1" xmlns="http://www.w3.org/2000/svg">
  <path d="M275 1.9a102.5 102.5 0 0 0-29.5 11C215.6 28.6 197 45.5 135.1 113.3a973.8 973.8 0 0 1-42.7 42.2c-32 30.1-44.8 43.1-57 58.4a149.3 149.3 0 0 0-29 51.7A61.4 61.4 0 0 0 3.6 289a70.4 70.4 0 0 0 8.9 39.5c13.3 27.6 38.8 56.4 100 113 27.6 25.5 59.9 57.2 117.5 115.4 43.7 44.1 79.5 80.8 79.5 81.4 0 1.2-183.7 183.5-226.7 225-52.5 50.6-71.1 76.1-80.4 109.8a71.3 71.3 0 0 0-1.8 19.4c0 15.2 1.9 23.6 8.7 37.5 6 12.3 14.7 23.2 36.2 45.7 10.5 10.9 32.3 34 48.5 51.3 58 62.2 78.5 82.6 114.9 114.6 24 21.2 34.6 28 50.9 32.6a91.8 91.8 0 0 0 41.7-.1c35.5-9.2 70-34.8 123.4-91.6a9427 9427 0 0 1 128.6-134c44.4-44.6 74.9-70.2 86.9-73 3.3-.7 5.3 1.3 175.6 173 69.8 70.3 84.7 84.4 104 98.1 41.9 29.7 77.7 34.6 115.3 15.8 20.3-10.1 27.9-16.6 80.2-68.3a7048 7048 0 0 1 106.7-104.4c37.3-35.2 51.8-59.1 53.5-88.2 1.2-22.1-6.6-46.3-23.2-71.7-18.4-28.1-42.5-53.5-98.5-103.9a2117.1 2117.1 0 0 1-90-87.9 3434.3 3434.3 0 0 0-71.9-71.4c-15.5-13.7-17.6-16.5-17.5-22.7 0-3.8.8-5.9 3.5-9.9 1.9-2.7 46.3-47.4 98.7-99.2 173.5-171.6 177.3-175.5 184.1-185.3a106.5 106.5 0 0 0 16.2-34c2-7.5 2.3-11.4 2.3-23a77.2 77.2 0 0 0-8.3-38.1c-8.3-17.7-18-29.9-48.7-61.4a1528 1528 0 0 1-48.6-53.1c-45.6-52.3-68.1-75.3-93.3-95.4a210.8 210.8 0 0 0-42-27.5C998.1-2.9 963.8.4 929.8 27.4c-5.8 4.7-21.1 19-34 31.9a67149.3 67149.3 0 0 1-230.3 227.8c-16.1 15.6-19.7 18.2-26.1 18.3-5.7.1-9.8-3-20-14.9-4.7-5.5-20.8-22.4-35.8-37.5C422.8 90.5 366.4 33.9 359.6 28.1 337.2 9.2 318.7 1.3 295 .4c-8.9-.3-13.4 0-20 1.5z" fill="#d32f2f"/>
</svg>